<?xml version="1.0" encoding="utf-8"?>
<!-- Generator: Adobe Illustrator 17.0.0, SVG Export Plug-In . SVG Version: 6.00 Build 0)  -->
<!DOCTYPE svg PUBLIC "-//W3C//DTD SVG 1.1//EN" "http://www.w3.org/Graphics/SVG/1.1/DTD/svg11.dtd">
<svg version="1.1" id="Layer_1" xmlns="http://www.w3.org/2000/svg" xmlns:xlink="http://www.w3.org/1999/xlink" x="0px" y="0px"
	 width="29px" height="25px" viewBox="0 0 29 25" enable-background="new 0 0 29 25" xml:space="preserve">
<path fill="#092D56" d="M0,1.786c0-0.474,0.191-0.928,0.531-1.263C0.871,0.188,1.332,0,1.813,0h25.375
	c0.481,0,0.942,0.188,1.282,0.523C28.809,0.858,29,1.312,29,1.786c0,0.474-0.191,0.928-0.531,1.263
	c-0.34,0.335-0.801,0.523-1.282,0.523H1.813c-0.481,0-0.942-0.188-1.282-0.523C0.191,2.714,0,2.259,0,1.786z M0,23.214
	c0-0.474,0.191-0.928,0.531-1.263c0.34-0.335,0.801-0.523,1.282-0.523h25.375c0.481,0,0.942,0.188,1.282,0.523
	C28.809,22.287,29,22.741,29,23.214s-0.191,0.928-0.531,1.263C28.129,24.812,27.668,25,27.188,25H1.813
	c-0.481,0-0.942-0.188-1.282-0.523C0.191,24.142,0,23.688,0,23.214z M12.688,10.714c-0.481,0-0.942,0.188-1.282,0.523
	s-0.531,0.789-0.531,1.263s0.191,0.928,0.531,1.263s0.801,0.523,1.282,0.523h14.5c0.481,0,0.942-0.188,1.282-0.523
	C28.809,13.428,29,12.974,29,12.5s-0.191-0.928-0.531-1.263c-0.34-0.335-0.801-0.523-1.282-0.523H12.688z"/>
</svg>
