<?xml version="1.0" encoding="utf-8"?>
<!-- Generator: Adobe Illustrator 26.3.0, SVG Export Plug-In . SVG Version: 6.00 Build 0)  -->
<svg version="1.1" id="Layer_1" xmlns="http://www.w3.org/2000/svg" xmlns:xlink="http://www.w3.org/1999/xlink" x="0px" y="0px"
	 width="194px" height="18.3px" viewBox="0 0 194 18.3" style="enable-background:new 0 0 194 18.3;" xml:space="preserve">
<style type="text/css">
	.st0{fill:#0B2F5A;}
	.st1{fill:#F7A42A;}
</style>
<g id="Group_50" transform="translate(-144.001 -6374)">
	<path id="Path_683" class="st0" d="M163.8,6391.9l-0.9-7.2c-0.9,1.2-1.8,2.3-2.7,3.5c-0.9,1.2-1.8,2.3-2.7,3.5H155l-4.6-6.7
		c-0.1,1.2-0.3,2.3-0.4,3.5c-0.1,1.2-0.3,2.3-0.4,3.5H144l1.5-17.4l5,0l6.3,9.7c1.3-1.7,2.5-3.3,3.6-4.8c1.1-1.6,2.3-3.2,3.6-4.8
		l3.8,0l1.6,17.4L163.8,6391.9L163.8,6391.9z"/>
	<path id="Path_684" class="st0" d="M170.8,6391.9l0-17.4h15.8v4.3h-10.1v1c0,0.2,0,0.4,0,0.6c0,0.1,0,0.3,0,0.4v0.4h8.6v4.2h-8.6
		v2.2h10.3v4.4L170.8,6391.9L170.8,6391.9z"/>
	<path id="Path_685" class="st0" d="M200.5,6391.9l-5.6-6.2h-0.7v6.2h-5.5l0-17.4h10c2.1,0,3.7,0.5,4.8,1.5c1.1,1,1.7,2.5,1.6,4
		c0,0.6-0.1,1.2-0.3,1.8c-0.2,0.5-0.5,1.1-0.9,1.5c-0.4,0.5-0.9,0.9-1.4,1.2c-0.5,0.3-1.1,0.6-1.7,0.8c0.4,0.4,0.8,0.9,1.3,1.4
		c0.5,0.5,1,1,1.5,1.6s1,1.1,1.5,1.6c0.5,0.5,0.9,1,1.3,1.4l-0.2,0.7L200.5,6391.9z M199.6,6380c0-0.4-0.1-0.7-0.4-0.9
		c-0.2-0.2-0.3-0.3-0.6-0.4c-0.3-0.1-0.5-0.1-0.8-0.1h-3.5v2.8h3.4c0.5,0,1-0.1,1.4-0.5C199.4,6380.7,199.5,6380.3,199.6,6380
		L199.6,6380z"/>
	<path id="Path_686" class="st0" d="M223.4,6380.8c-0.3-0.3-0.6-0.5-0.9-0.6c-0.4-0.2-0.7-0.3-1-0.5c-0.3-0.1-0.7-0.3-1-0.4
		s-0.5-0.2-0.7-0.2c-0.5-0.2-1-0.3-1.5-0.4c-0.6-0.1-1.3-0.2-2-0.2c-0.6,0-1.2,0.1-1.8,0.3c-0.5,0.2-1,0.5-1.4,0.9
		c-0.4,0.4-0.7,0.9-0.9,1.4c-0.2,0.6-0.3,1.2-0.3,1.8c0,0.7,0.1,1.3,0.4,1.9c0.2,0.6,0.5,1.1,1,1.5c0.4,0.4,0.9,0.7,1.5,0.9
		c0.6,0.2,1.2,0.3,1.8,0.3c0.7,0,1.4-0.1,2.1-0.3c0.7-0.2,1.3-0.5,1.9-0.8c0-0.1,0-0.2,0-0.4c0-0.2,0-0.4,0-0.6h-4.7v-3.8h9.9v7.1
		c-0.5,0.4-1,0.8-1.5,1.1c-1.4,0.9-2.9,1.5-4.5,1.9c-1,0.2-2.1,0.3-3.2,0.3c-1.3,0-2.6-0.2-3.8-0.6c-1.2-0.4-2.2-1-3.2-1.7
		c-0.9-0.8-1.7-1.8-2.2-2.9c-0.6-1.3-0.8-2.6-0.8-4c0-0.9,0.1-1.9,0.4-2.8c0.3-0.8,0.6-1.6,1.1-2.3c0.5-0.7,1-1.3,1.7-1.8
		c0.6-0.5,1.3-0.9,2.1-1.3c0.7-0.3,1.5-0.6,2.3-0.7c0.8-0.2,1.6-0.2,2.3-0.2c0.2,0,0.5,0,0.8,0s0.7,0,1.1,0.1c0.4,0,0.8,0.1,1.3,0.2
		c0.4,0.1,0.9,0.2,1.3,0.3c0.5,0.2,0.9,0.4,1.4,0.6c0.5,0.2,1,0.5,1.4,0.8c0.5,0.3,0.9,0.5,1.2,0.8c0.3,0.2,0.6,0.4,0.8,0.7
		L223.4,6380.8z"/>
	<path id="Path_687" class="st0" d="M227.6,6391.9l0-17.4h15.8v4.3h-10.1v1c0,0.2,0,0.4,0,0.6c0,0.1,0,0.3,0,0.4v0.4h8.6v4.2h-8.6
		v2.2h10.3v4.4L227.6,6391.9L227.6,6391.9z"/>
	<path id="Path_688" class="st0" d="M257.3,6391.9l-5.6-6.2H251v6.2h-5.5l0-17.4h10c2.1,0,3.7,0.5,4.8,1.5c1.1,1,1.7,2.5,1.6,4
		c0,0.6-0.1,1.2-0.3,1.8c-0.2,0.5-0.5,1.1-0.9,1.5c-0.4,0.5-0.9,0.9-1.4,1.2c-0.5,0.3-1.1,0.6-1.7,0.8c0.4,0.4,0.8,0.9,1.3,1.4
		c0.5,0.5,1,1,1.5,1.6s1,1.1,1.5,1.6s0.9,1,1.3,1.4l-0.2,0.7L257.3,6391.9z M256.4,6380c0-0.4-0.1-0.7-0.4-0.9
		c-0.2-0.2-0.3-0.3-0.6-0.4c-0.3-0.1-0.5-0.1-0.8-0.1H251v2.8h3.4c0.5,0,1-0.1,1.4-0.5C256.2,6380.7,256.3,6380.3,256.4,6380
		L256.4,6380z"/>
	<path id="Path_689" class="st0" d="M278.9,6386.3c0,1-0.2,2.1-0.7,3c-0.4,0.7-1.1,1.4-1.8,1.8c-0.8,0.5-1.6,0.8-2.5,0.9
		c-0.9,0.2-1.8,0.3-2.7,0.3c-0.6,0-1.3,0-1.9-0.2c-0.6-0.1-1.2-0.3-1.8-0.5c-0.6-0.2-1.3-0.5-1.9-0.8c-0.6-0.3-1.3-0.8-2.1-1.2
		l1.6-4.3c1,0.7,2.1,1.3,3.3,1.8c0.8,0.3,1.7,0.5,2.6,0.5c0.4,0,0.7,0,1.1-0.1c0.3,0,0.7-0.1,1-0.2c0.3-0.1,0.5-0.2,0.7-0.4
		c0.2-0.1,0.3-0.4,0.3-0.6c0-0.2-0.1-0.4-0.4-0.5c-0.3-0.1-0.6-0.3-1-0.3c-0.4-0.1-0.8-0.1-1.2-0.2l-1.2-0.1
		c-0.8-0.1-1.5-0.2-2.3-0.3c-0.8-0.2-1.5-0.5-2.2-0.9c-0.7-0.4-1.2-0.9-1.6-1.6c-0.5-0.8-0.7-1.7-0.6-2.6c0-0.7,0.1-1.4,0.4-2.1
		c0.2-0.6,0.6-1.1,1-1.6c0.4-0.4,0.9-0.8,1.4-1.1c0.5-0.3,1.1-0.5,1.6-0.6c0.6-0.2,1.1-0.3,1.7-0.3c0.5-0.1,1-0.1,1.5-0.1
		c1.3,0,2.5,0.2,3.7,0.6c1.4,0.5,2.7,1.2,3.9,2l-1.4,3.8c-0.5-0.3-1.1-0.6-1.7-0.9c-0.5-0.2-1.1-0.4-1.6-0.5c-0.5-0.1-1-0.2-1.5-0.3
		c-0.4,0-0.9-0.1-1.4-0.1c-0.5,0-0.9,0-1.4,0.1c-0.3,0-0.6,0.1-0.8,0.2c-0.2,0.1-0.3,0.2-0.4,0.3c-0.1,0.1-0.1,0.2-0.1,0.3
		c0,0.2,0.1,0.3,0.4,0.4c0.3,0.1,0.6,0.2,0.9,0.2c0.3,0.1,0.7,0.1,1,0.1c0.3,0,0.6,0,0.8,0c0.5,0,1,0.1,1.6,0.2
		c0.6,0.1,1.1,0.2,1.7,0.4c0.5,0.2,1.1,0.4,1.6,0.6c0.5,0.3,1,0.6,1.3,1c0.4,0.4,0.7,1,0.9,1.5
		C278.8,6384.9,278.9,6385.6,278.9,6386.3z"/>
	<path id="Path_690" class="st1" d="M299.1,6386.7c0,1.5-0.6,2.9-1.8,3.8c-0.6,0.5-1.3,0.8-2,1c-0.8,0.2-1.7,0.4-2.5,0.4h-11.1
		v-17.4h10.8c1,0,1.9,0.1,2.8,0.4c0.7,0.2,1.4,0.6,2,1.1c0.5,0.4,0.9,1,1.2,1.7c0.3,0.7,0.4,1.3,0.4,2.1c0,0.7-0.2,1.4-0.5,2
		c-0.3,0.5-0.7,1-1.3,1.4c0.6,0.5,1,1,1.4,1.7C298.9,6385.3,299.1,6386,299.1,6386.7z M293.6,6380c0-0.2,0-0.3-0.1-0.5
		c0-0.1-0.1-0.3-0.2-0.4c-0.1-0.1-0.3-0.2-0.5-0.3c-0.3-0.1-0.5-0.1-0.8-0.1h-4.9v2.5h4.6c0.5,0.1,1-0.1,1.4-0.4
		C293.5,6380.6,293.6,6380.3,293.6,6380L293.6,6380z M293.5,6386.5c0-0.2,0-0.3-0.1-0.5c0-0.2-0.1-0.3-0.2-0.4
		c-0.1-0.1-0.3-0.2-0.5-0.3c-0.3-0.1-0.5-0.1-0.8-0.1h-4.8v2.5h4.6c0.3,0,0.6,0,0.9-0.1c0.2-0.1,0.4-0.1,0.5-0.3
		c0.1-0.1,0.2-0.2,0.3-0.4C293.5,6386.8,293.5,6386.6,293.5,6386.5z"/>
	<path id="Path_691" class="st1" d="M314.8,6391.9l-1-2.2h-8.2l-1.2,2.2h-5.9l9.3-17.5h5.1l8.9,17.5H314.8z M309.7,6381.3l-1.8,3.7
		h3.7L309.7,6381.3z"/>
	<path id="Path_692" class="st1" d="M330.1,6385.3v6.6h-6.8v-6.7c-0.6-0.8-1.2-1.6-1.9-2.4c-0.7-0.8-1.3-1.7-2-2.5
		c-0.7-0.9-1.3-1.7-2-2.5s-1.3-1.6-1.9-2.4l0.2-0.8h6.6l4.9,5.8c0.4-0.5,0.8-1,1.1-1.5c0.4-0.5,0.7-0.9,1.1-1.4
		c0.4-0.5,0.7-0.9,1.1-1.4s0.7-1,1.1-1.5h6l0.2,0.7L330.1,6385.3z"/>
</g>
</svg>
