<?xml version="1.0" encoding="utf-8"?>
<!-- Generator: Adobe Illustrator 26.3.0, SVG Export Plug-In . SVG Version: 6.00 Build 0)  -->
<svg version="1.1" id="Layer_1" xmlns="http://www.w3.org/2000/svg" xmlns:xlink="http://www.w3.org/1999/xlink" x="0px" y="0px"
	 width="230px" height="47.1px" viewBox="0 0 230 47.1" style="enable-background:new 0 0 230 47.1;" xml:space="preserve">
<style type="text/css">
	.st0{fill:#050D34;}
	.st1{fill:#F7A42A;}
</style>
<g id="Group_49" transform="translate(-140.001 -59.182)">
	<g id="Logo_2" transform="translate(-952.779 -351.908)">
		<path id="Path_122" class="st0" d="M1116.3,432.3l-1.1-8.6c-1.1,1.4-2.1,2.8-3.3,4.1c-1.1,1.4-2.2,2.8-3.2,4.2h-2.9l-5.5-7.9
			c-0.2,1.4-0.3,2.7-0.5,4.1c-0.1,1.4-0.3,2.7-0.5,4.1h-6.6l1.8-20.7l5.9,0l7.5,11.5c1.5-2,2.9-3.9,4.3-5.7c1.4-1.9,2.8-3.8,4.3-5.7
			l4.5,0l1.9,20.7L1116.3,432.3L1116.3,432.3z"/>
		<path id="Path_123" class="st0" d="M1124.6,432.3l0-20.7h18.7v5.1h-11.9v1.2c0,0.3,0,0.5,0,0.7c0,0.2,0,0.3,0,0.4v0.4h10.2v5
			h-10.2v2.6h12.3v5.2L1124.6,432.3L1124.6,432.3z"/>
		<path id="Path_124" class="st0" d="M1159.8,432.3l-6.6-7.3h-0.8v7.3h-6.5l0-20.7h11.9c2.5,0,4.4,0.6,5.7,1.8
			c1.3,1.2,2,2.9,1.9,4.7c0,0.7-0.1,1.4-0.4,2.1c-0.3,0.6-0.6,1.3-1.1,1.8c-0.5,0.6-1,1-1.6,1.4c-0.6,0.4-1.3,0.7-2.1,1
			c0.5,0.5,1,1.1,1.5,1.7c0.6,0.6,1.2,1.2,1.8,1.9s1.2,1.3,1.7,1.9c0.6,0.6,1.1,1.2,1.5,1.7l-0.3,0.9L1159.8,432.3z M1158.6,418.2
			c0-0.4-0.2-0.8-0.5-1.1c-0.2-0.2-0.4-0.3-0.7-0.4c-0.3-0.1-0.6-0.2-1-0.2h-4.2v3.4h4c0.6,0,1.2-0.2,1.7-0.6
			C1158.4,419,1158.6,418.6,1158.6,418.2L1158.6,418.2z"/>
		<path id="Path_125" class="st0" d="M1186.9,419.2c-0.3-0.3-0.7-0.6-1.1-0.8c-0.4-0.2-0.8-0.4-1.2-0.6c-0.4-0.2-0.8-0.3-1.1-0.4
			c-0.3-0.1-0.6-0.2-0.8-0.3c-0.6-0.2-1.2-0.3-1.8-0.4c-0.8-0.1-1.5-0.2-2.3-0.2c-0.7,0-1.5,0.1-2.2,0.4c-0.6,0.2-1.2,0.6-1.7,1.1
			c-0.5,0.5-0.9,1-1.1,1.7c-0.3,0.7-0.4,1.4-0.4,2.2c0,0.8,0.1,1.6,0.4,2.3c0.3,0.7,0.7,1.3,1.2,1.8c0.5,0.5,1.1,0.9,1.7,1.1
			c0.7,0.3,1.4,0.4,2.1,0.4c0.9,0,1.7-0.1,2.5-0.4c0.8-0.2,1.5-0.5,2.2-1c0-0.1,0-0.2,0-0.4s0-0.4,0-0.7h-5.6v-4.5h11.7v8.4
			c-0.6,0.5-1.1,0.9-1.8,1.3c-1.6,1-3.5,1.8-5.4,2.3c-1.2,0.3-2.5,0.4-3.8,0.4c-1.5,0-3.1-0.2-4.5-0.7c-1.4-0.4-2.7-1.1-3.8-2.1
			c-1.1-0.9-2-2.1-2.6-3.4c-0.7-1.5-1-3.1-0.9-4.7c0-1.1,0.2-2.2,0.5-3.3c0.3-1,0.8-1.9,1.4-2.7c0.6-0.8,1.2-1.5,2-2.1
			c0.8-0.6,1.6-1.1,2.5-1.5c0.9-0.4,1.8-0.7,2.7-0.9c0.9-0.2,1.8-0.3,2.8-0.3c0.2,0,0.6,0,1,0c0.4,0,0.8,0.1,1.3,0.1s1,0.1,1.5,0.2
			c0.5,0.1,1,0.2,1.5,0.4c0.6,0.2,1.1,0.4,1.6,0.7c0.6,0.3,1.2,0.6,1.7,0.9c0.5,0.3,1,0.6,1.5,1c0.4,0.2,0.7,0.5,1,0.8L1186.9,419.2
			z"/>
		<path id="Path_126" class="st0" d="M1191.9,432.3l0-20.7h18.7v5.1h-11.9v1.2c0,0.3,0,0.5,0,0.7c0,0.2,0,0.3,0,0.4v0.4h10.2v5
			h-10.2v2.6h12.3v5.2L1191.9,432.3L1191.9,432.3z"/>
		<path id="Path_127" class="st0" d="M1227.1,432.3l-6.6-7.3h-0.8v7.3h-6.5l0-20.7h11.9c2.5,0,4.4,0.6,5.7,1.8
			c1.3,1.2,2,2.9,1.9,4.7c0,0.7-0.1,1.4-0.4,2.1c-0.3,0.6-0.6,1.3-1.1,1.8c-0.5,0.6-1,1-1.6,1.4c-0.6,0.4-1.3,0.7-2.1,1
			c0.5,0.5,1,1.1,1.5,1.7c0.6,0.6,1.2,1.2,1.8,1.9c0.6,0.6,1.2,1.3,1.7,1.9c0.6,0.6,1.1,1.2,1.5,1.7l-0.3,0.9L1227.1,432.3z
			 M1226,418.2c0-0.4-0.2-0.8-0.5-1.1c-0.2-0.2-0.4-0.3-0.7-0.4c-0.3-0.1-0.6-0.2-1-0.2h-4.2v3.4h4c0.6,0,1.2-0.2,1.7-0.6
			C1225.8,419,1226,418.6,1226,418.2L1226,418.2z"/>
		<path id="Path_128" class="st0" d="M1252.7,425.7c0.1,1.2-0.2,2.4-0.8,3.5c-0.5,0.9-1.3,1.6-2.2,2.2c-0.9,0.5-1.9,0.9-2.9,1.1
			c-1.1,0.2-2.1,0.3-3.2,0.3c-0.8,0-1.5-0.1-2.3-0.2c-0.7-0.1-1.5-0.3-2.2-0.5c-0.8-0.3-1.5-0.6-2.2-1c-0.8-0.4-1.6-0.9-2.5-1.5
			l1.9-5.1c1.2,0.9,2.5,1.6,3.9,2.1c1,0.4,2,0.6,3.1,0.6c0.4,0,0.9,0,1.3-0.1c0.4-0.1,0.8-0.1,1.2-0.3c0.3-0.1,0.6-0.3,0.8-0.5
			c0.2-0.2,0.3-0.4,0.3-0.7c0-0.2-0.2-0.4-0.5-0.6c-0.4-0.2-0.8-0.3-1.2-0.4c-0.5-0.1-0.9-0.2-1.5-0.2l-1.4-0.1
			c-0.9-0.1-1.8-0.2-2.7-0.4c-0.9-0.2-1.8-0.5-2.6-1c-0.8-0.5-1.4-1.1-1.9-1.9c-0.5-0.9-0.8-2-0.8-3.1c0-0.9,0.1-1.7,0.4-2.5
			c0.3-0.7,0.7-1.3,1.2-1.8c0.5-0.5,1-0.9,1.7-1.3c0.6-0.3,1.3-0.6,2-0.8c0.7-0.2,1.3-0.3,2-0.4c0.6-0.1,1.2-0.1,1.8-0.1
			c1.5,0,3,0.3,4.4,0.8c1.6,0.6,3.1,1.4,4.6,2.3l-1.6,4.5c-0.6-0.4-1.3-0.7-2-1c-0.6-0.3-1.3-0.5-1.9-0.6c-0.6-0.2-1.2-0.3-1.8-0.3
			c-0.5-0.1-1.1-0.1-1.6-0.1c-0.6,0-1.1,0-1.7,0.1c-0.3,0.1-0.7,0.2-1,0.3c-0.2,0.1-0.4,0.2-0.5,0.4c-0.1,0.1-0.1,0.2-0.1,0.4
			c0,0.2,0.1,0.4,0.4,0.5c0.3,0.1,0.7,0.2,1,0.3c0.4,0.1,0.8,0.1,1.2,0.1c0.4,0,0.7,0,1,0c0.6,0.1,1.2,0.1,1.8,0.2
			c0.7,0.1,1.3,0.2,2,0.4c0.6,0.2,1.3,0.4,1.9,0.7c0.6,0.3,1.1,0.7,1.6,1.2c0.5,0.5,0.9,1.1,1.1,1.8
			C1252.6,424,1252.8,424.9,1252.7,425.7z"/>
		<path id="Path_129" class="st1" d="M1276.6,426.2c0,1.8-0.8,3.5-2.2,4.5c-0.7,0.6-1.5,1-2.4,1.2c-1,0.3-2,0.4-3,0.4H1256v-20.7
			h12.7c1.1,0,2.3,0.1,3.4,0.5c0.9,0.3,1.7,0.7,2.4,1.3c0.6,0.5,1.1,1.2,1.4,2c0.3,0.8,0.5,1.6,0.5,2.4c0,0.8-0.2,1.6-0.6,2.3
			c-0.4,0.7-0.9,1.2-1.5,1.7c0.7,0.5,1.2,1.2,1.7,2C1276.4,424.5,1276.6,425.3,1276.6,426.2z M1270.2,418.2c0-0.2,0-0.4-0.1-0.6
			c0-0.2-0.1-0.3-0.3-0.5c-0.2-0.2-0.4-0.3-0.6-0.3c-0.3-0.1-0.6-0.1-1-0.1h-5.8v3h5.5c0.6,0.1,1.2-0.1,1.7-0.5
			C1270,419,1270.2,418.6,1270.2,418.2L1270.2,418.2z M1270.1,425.9c0-0.2,0-0.4-0.1-0.6c0-0.2-0.1-0.4-0.3-0.5
			c-0.2-0.2-0.3-0.3-0.6-0.4c-0.3-0.1-0.6-0.1-0.9-0.1h-5.7v2.9h5.4c0.3,0,0.7,0,1-0.1c0.2-0.1,0.5-0.2,0.6-0.3
			c0.1-0.1,0.3-0.3,0.3-0.4C1270,426.2,1270.1,426.1,1270.1,425.9L1270.1,425.9z"/>
		<path id="Path_130" class="st1" d="M1295.2,432.3l-1.2-2.6h-9.7l-1.4,2.6h-7l11-20.7h6l10.5,20.7H1295.2z M1289.2,419.8l-2.2,4.4
			h4.4L1289.2,419.8z"/>
		<path id="Path_131" class="st1" d="M1313.5,424.5v7.8h-8.1v-8c-0.7-0.9-1.5-1.9-2.2-2.9c-0.8-1-1.6-2-2.4-3c-0.8-1-1.6-2-2.4-3
			c-0.8-1-1.5-2-2.2-2.9l0.3-0.9h7.8l5.8,6.8c0.5-0.6,0.9-1.2,1.4-1.8c0.4-0.6,0.9-1.1,1.3-1.7s0.9-1.1,1.3-1.7s0.9-1.1,1.3-1.8h7.1
			l0.3,0.8L1313.5,424.5z"/>
		<path id="Path_132" class="st0" d="M1110.9,448c0,0.3-0.1,0.5-0.2,0.7c-0.1,0.2-0.3,0.4-0.5,0.5c-0.2,0.2-0.4,0.3-0.7,0.3
			c-0.3,0.1-0.6,0.1-0.9,0.1h-1.6v1.5h-1.2v-5.1h2.7c0.3,0,0.6,0,0.9,0.1c0.3,0.1,0.5,0.2,0.7,0.4c0.2,0.2,0.4,0.3,0.5,0.6
			C1110.9,447.4,1110.9,447.7,1110.9,448z M1109.8,448c0-0.1,0-0.2-0.1-0.3c0-0.1-0.1-0.2-0.2-0.3c-0.1-0.1-0.2-0.2-0.3-0.2
			c-0.1-0.1-0.3-0.1-0.4-0.1h-1.5v1.8h1.4c0.2,0,0.3,0,0.5-0.1c0.1,0,0.3-0.1,0.4-0.2c0.1-0.1,0.2-0.2,0.3-0.3
			C1109.7,448.2,1109.8,448.1,1109.8,448L1109.8,448z"/>
		<path id="Path_133" class="st0" d="M1116.6,451.3c-0.2-0.3-0.4-0.5-0.6-0.8c-0.1-0.1-0.2-0.2-0.3-0.3c-0.1-0.1-0.2-0.2-0.3-0.3
			c-0.1-0.1-0.2-0.2-0.3-0.3s-0.2-0.2-0.2-0.2h-1l0,2h-1.2v-5.1h3c0.3,0,0.6,0,0.8,0.1c0.2,0.1,0.5,0.2,0.7,0.3
			c0.2,0.1,0.3,0.3,0.4,0.5c0.1,0.2,0.2,0.4,0.2,0.6c0,0.2,0,0.4-0.1,0.6c-0.1,0.2-0.2,0.3-0.4,0.5c-0.2,0.1-0.3,0.3-0.5,0.3
			c-0.2,0.1-0.4,0.1-0.7,0.2l0.1,0l1.5,1.9v0.1L1116.6,451.3L1116.6,451.3z M1116.8,447.7c0-0.2-0.1-0.4-0.2-0.5
			c-0.2-0.1-0.5-0.2-0.7-0.2h-1.9v1.3l1.8,0c0.3,0,0.5-0.1,0.8-0.2C1116.7,448.1,1116.8,447.9,1116.8,447.7z"/>
		<path id="Path_134" class="st0" d="M1120.2,451.3v-5.1h1.1v5.1H1120.2z"/>
		<path id="Path_135" class="st0" d="M1123,446.2h1.2l2,3.8l2-3.8h1.2l-2.7,5.1h-1L1123,446.2z"/>
		<path id="Path_136" class="st0" d="M1134.3,451.3l-0.5-1.1l-2.5,0l-0.5,1.1h-1.1l2.5-5.1h1l2.4,5.1L1134.3,451.3z M1132.5,447.4
			L1132.5,447.4l-0.9,1.9h1.8L1132.5,447.4z"/>
		<path id="Path_137" class="st0" d="M1139.3,447v4.3h-1.2l0-4.3h-2.2v-0.8h5.6v0.8H1139.3z"/>
		<path id="Path_138" class="st0" d="M1143.3,451.3v-5.1h4.5v0.8h-3.3v1.3h2.8v0.8h-2.8v1.3h3.4v0.8L1143.3,451.3z"/>
		<path id="Path_139" class="st0" d="M1153.1,451.3v-5.1h4.5v0.8h-3.3v1.3h2.8v0.8h-2.8v1.3h3.4v0.8L1153.1,451.3z"/>
		<path id="Path_140" class="st0" d="M1165.7,448.8c0,0.3-0.1,0.7-0.2,1c-0.1,0.3-0.3,0.5-0.5,0.7c-0.2,0.2-0.5,0.4-0.7,0.5
			c-0.3,0.1-0.6,0.2-0.9,0.3c0.1,0.1,0.2,0.2,0.4,0.3c0.2,0.1,0.3,0.2,0.5,0.3c0.2,0.1,0.4,0.2,0.5,0.2c0.2,0.1,0.4,0.1,0.5,0.2
			l-0.5,0.7c-0.3-0.1-0.6-0.2-0.9-0.3c-0.3-0.1-0.5-0.3-0.8-0.4c-0.2-0.1-0.5-0.3-0.7-0.5c-0.2-0.1-0.4-0.3-0.5-0.5
			c-0.3,0-0.7-0.1-1-0.3c-0.3-0.1-0.6-0.3-0.8-0.5c-0.2-0.2-0.4-0.5-0.6-0.8c-0.1-0.3-0.2-0.7-0.2-1c0-0.4,0.1-0.8,0.3-1.1
			c0.2-0.3,0.4-0.6,0.7-0.8c0.3-0.2,0.6-0.4,1-0.5c0.4-0.1,0.8-0.2,1.1-0.2c0.4,0,0.8,0.1,1.2,0.2c0.4,0.1,0.7,0.3,1,0.5
			c0.3,0.2,0.5,0.5,0.7,0.8C1165.6,448,1165.7,448.4,1165.7,448.8z M1164.6,448.8c0-0.2-0.1-0.5-0.2-0.7c-0.1-0.2-0.2-0.4-0.4-0.6
			c-0.2-0.2-0.4-0.3-0.7-0.4c-0.3-0.1-0.6-0.1-0.9-0.1c-0.3,0-0.6,0-0.8,0.1c-0.2,0.1-0.5,0.2-0.7,0.4c-0.2,0.2-0.3,0.4-0.4,0.6
			c-0.1,0.2-0.2,0.5-0.2,0.7c0,0.2,0.1,0.5,0.2,0.7c0.1,0.2,0.2,0.4,0.4,0.5c0.2,0.2,0.4,0.3,0.7,0.4c0.3,0.1,0.6,0.1,0.8,0.1
			c0.3,0,0.6,0,0.9-0.1c0.2-0.1,0.5-0.2,0.7-0.4c0.2-0.2,0.3-0.3,0.4-0.5C1164.6,449.2,1164.6,449,1164.6,448.8z"/>
		<path id="Path_141" class="st0" d="M1167.4,446.2h1.1v2.6c0,0.3,0,0.5,0.1,0.8c0.1,0.2,0.2,0.4,0.3,0.5c0.1,0.1,0.3,0.2,0.5,0.3
			c0.2,0.1,0.4,0.1,0.6,0.1c0.2,0,0.4,0,0.6-0.1c0.2-0.1,0.3-0.2,0.5-0.3c0.1-0.2,0.3-0.3,0.3-0.5c0.1-0.2,0.1-0.5,0.1-0.8l0-2.5
			h1.2v2.5c0,0.4-0.1,0.8-0.2,1.1c-0.1,0.3-0.3,0.6-0.5,0.8c-0.2,0.2-0.5,0.4-0.8,0.5c-0.4,0.1-0.7,0.2-1.1,0.2
			c-0.4,0-0.8-0.1-1.1-0.2c-0.3-0.1-0.6-0.3-0.9-0.5c-0.2-0.2-0.4-0.5-0.5-0.8c-0.1-0.3-0.2-0.7-0.2-1.1L1167.4,446.2z"/>
		<path id="Path_142" class="st0" d="M1174.9,451.3v-5.1h1.1v5.1H1174.9z"/>
		<path id="Path_143" class="st0" d="M1181.4,447v4.3h-1.2l0-4.3h-2.2v-0.8h5.6v0.8H1181.4z"/>
		<path id="Path_144" class="st0" d="M1188.2,449.3v1.9h-1.2l0-2l-2.1-3.1h1.2l1.6,2.3l1.5-2.3h1.1L1188.2,449.3z"/>
		<path id="Path_145" class="st1" d="M1194.8,449.5v-0.8h2.6v0.8H1194.8z"/>
		<path id="Path_146" class="st0" d="M1209.1,451.3h-1l-0.3-3l0,0l-2,2.9h-0.3l-1.9-2.9l0,0l-0.3,3h-1l0.5-5.1h0.7l2.3,3.5h0
			l2.3-3.5h0.6L1209.1,451.3z"/>
		<path id="Path_147" class="st0" d="M1216.7,451.3h-1.1l-0.7-0.7c-0.1,0.1-0.2,0.2-0.3,0.3c-0.1,0.1-0.2,0.2-0.4,0.2
			c-0.1,0.1-0.3,0.1-0.4,0.2c-0.2,0-0.3,0.1-0.5,0.1c-0.2,0-0.5,0-0.7,0c-0.2,0-0.5-0.1-0.7-0.2c-0.2-0.1-0.4-0.3-0.5-0.5
			c-0.2-0.3-0.2-0.6-0.2-0.9c0-0.2,0-0.4,0.1-0.5c0.1-0.2,0.2-0.3,0.3-0.4c0.1-0.1,0.3-0.2,0.5-0.3c0.2-0.1,0.3-0.2,0.5-0.2
			l-0.2-0.2l-0.3-0.3c-0.1-0.2-0.2-0.4-0.2-0.6c0-0.1,0-0.3,0.1-0.4c0.1-0.1,0.2-0.3,0.3-0.4c0.2-0.1,0.4-0.2,0.5-0.2
			c0.2-0.1,0.5-0.1,0.7-0.1c0.2,0,0.5,0,0.7,0.1c0.2,0.1,0.3,0.1,0.5,0.3c0.1,0.1,0.2,0.2,0.3,0.4c0.1,0.1,0.1,0.3,0.1,0.4
			c0,0.1,0,0.3-0.1,0.4c-0.1,0.1-0.2,0.2-0.3,0.3c-0.1,0.1-0.2,0.2-0.4,0.3c-0.1,0.1-0.3,0.2-0.4,0.2l0.9,0.9
			c0.1-0.1,0.2-0.3,0.3-0.4c0.1-0.1,0.2-0.2,0.2-0.3c0.1-0.1,0.1-0.2,0.2-0.3l0.7,0.4c-0.1,0.1-0.2,0.3-0.3,0.4
			c-0.1,0.1-0.2,0.3-0.3,0.4s-0.2,0.3-0.3,0.4L1216.7,451.3L1216.7,451.3z M1213.2,448.9c-0.1,0.1-0.3,0.1-0.4,0.2
			c-0.1,0.1-0.2,0.1-0.3,0.2c-0.1,0.1-0.2,0.1-0.2,0.2c-0.1,0.1-0.1,0.2-0.1,0.3c0,0.2,0,0.3,0.1,0.4c0.1,0.1,0.2,0.2,0.3,0.2
			c0.1,0.1,0.2,0.1,0.4,0.1c0.1,0,0.3,0,0.4,0c0.2,0,0.3-0.1,0.5-0.2c0.2-0.1,0.4-0.3,0.5-0.4L1213.2,448.9z M1214.2,447.2
			c0-0.1,0-0.1,0-0.2c0-0.1-0.1-0.1-0.1-0.2c-0.1-0.1-0.1-0.1-0.2-0.1c-0.1,0-0.2-0.1-0.3-0.1c-0.2,0-0.3,0-0.5,0.1
			c-0.1,0.1-0.2,0.2-0.2,0.4c0,0.1,0.1,0.3,0.1,0.3l0.4,0.4h0c0.1,0,0.2-0.1,0.3-0.1c0.1-0.1,0.2-0.1,0.2-0.2
			c0.1-0.1,0.1-0.1,0.2-0.2C1214.2,447.3,1214.2,447.3,1214.2,447.2L1214.2,447.2z"/>
		<path id="Path_148" class="st0" d="M1222.9,451.3l-0.5-1.1l-2.5,0l-0.5,1.1h-1.1l2.5-5.1h1l2.4,5.1L1222.9,451.3z M1221.1,447.4
			L1221.1,447.4l-0.9,1.9h1.8L1221.1,447.4z"/>
		<path id="Path_149" class="st1" d="M1228.6,449.5v-0.8h2.6v0.8H1228.6z"/>
		<path id="Path_150" class="st0" d="M1236.4,451.3v-5.1h1.1v5.1H1236.4z"/>
		<path id="Path_151" class="st0" d="M1244.5,451.3l-3.6-3.2v3.2h-1.2v-5.1h0.7l3.5,3.1v-3.1h1.1v5.1H1244.5z"/>
		<path id="Path_152" class="st0" d="M1246.7,446.2h1.2l2,3.8l2-3.8h1.2l-2.7,5.1h-1L1246.7,446.2z"/>
		<path id="Path_153" class="st0" d="M1254.5,451.3v-5.1h4.5v0.8h-3.3v1.3h2.8v0.8h-2.8v1.3h3.4v0.8L1254.5,451.3z"/>
		<path id="Path_154" class="st0" d="M1266,449.7c0,0.3-0.1,0.6-0.3,0.8c-0.2,0.2-0.4,0.4-0.7,0.5c-0.3,0.1-0.6,0.2-0.8,0.3
			c-0.3,0-0.6,0.1-0.8,0.1c-0.2,0-0.4,0-0.6,0c-0.2,0-0.4-0.1-0.6-0.1c-0.2-0.1-0.4-0.1-0.6-0.2c-0.2-0.1-0.4-0.2-0.6-0.3l0.4-0.8
			c0.4,0.2,0.7,0.3,1.1,0.5c0.3,0.1,0.6,0.2,0.8,0.2c0.2,0,0.3,0,0.5,0c0.2,0,0.3-0.1,0.5-0.1c0.1-0.1,0.3-0.1,0.4-0.2
			c0.1-0.1,0.2-0.2,0.2-0.4c0-0.1,0-0.2-0.1-0.3c-0.1-0.1-0.2-0.1-0.3-0.2c-0.2-0.1-0.3-0.1-0.5-0.1c-0.2,0-0.4-0.1-0.6-0.1
			c-0.3,0-0.5-0.1-0.8-0.1c-0.3,0-0.5-0.1-0.7-0.2c-0.2-0.1-0.4-0.2-0.5-0.4c-0.1-0.2-0.2-0.5-0.2-0.7c0-0.3,0.1-0.6,0.3-0.8
			c0.2-0.2,0.4-0.4,0.6-0.5c0.3-0.1,0.5-0.2,0.8-0.2c0.3,0,0.5-0.1,0.8-0.1c0.8,0,1.7,0.2,2.4,0.6l-0.3,0.7c-0.3-0.2-0.7-0.3-1-0.4
			c-0.3-0.1-0.7-0.1-1-0.1c-0.2,0-0.4,0-0.7,0.1c-0.2,0-0.3,0.1-0.4,0.2c-0.1,0-0.2,0.1-0.2,0.2c0,0.1-0.1,0.1-0.1,0.2
			c0,0.1,0.1,0.2,0.2,0.3c0.1,0.1,0.3,0.1,0.4,0.2c0.2,0,0.3,0.1,0.5,0.1c0.2,0,0.3,0,0.4,0c0.2,0,0.3,0,0.5,0.1
			c0.2,0,0.4,0.1,0.6,0.1c0.2,0,0.4,0.1,0.5,0.2c0.2,0.1,0.3,0.2,0.4,0.3c0.1,0.1,0.2,0.3,0.3,0.4
			C1265.9,449.3,1266,449.5,1266,449.7z"/>
		<path id="Path_155" class="st0" d="M1270.8,447v4.3h-1.2l0-4.3h-2.2v-0.8h5.6v0.8H1270.8z"/>
		<path id="Path_156" class="st0" d="M1281.6,451.3h-1l-0.3-3l0,0l-2,2.9h-0.3l-1.9-2.9l0,0l-0.3,3h-1l0.5-5.1h0.7l2.3,3.5h0
			l2.3-3.5h0.6L1281.6,451.3z"/>
		<path id="Path_157" class="st0" d="M1283.7,451.3v-5.1h4.5v0.8h-3.3v1.3h2.8v0.8h-2.8v1.3h3.4v0.8L1283.7,451.3z"/>
		<path id="Path_158" class="st0" d="M1295,451.3l-3.6-3.2v3.2h-1.2v-5.1h0.7l3.5,3.1v-3.1h1.1v5.1H1295z"/>
		<path id="Path_159" class="st0" d="M1300.7,447v4.3h-1.2l0-4.3h-2.2v-0.8h5.6v0.8H1300.7z"/>
		<path id="Path_160" class="st0" d="M1309.6,449.7c0,0.3-0.1,0.6-0.3,0.8c-0.2,0.2-0.4,0.4-0.7,0.5c-0.3,0.1-0.6,0.2-0.8,0.3
			c-0.3,0-0.6,0.1-0.8,0.1c-0.2,0-0.4,0-0.6,0c-0.2,0-0.4-0.1-0.6-0.1c-0.2-0.1-0.4-0.1-0.6-0.2c-0.2-0.1-0.4-0.2-0.6-0.3l0.4-0.8
			c0.4,0.2,0.7,0.3,1.1,0.5c0.3,0.1,0.6,0.2,0.8,0.2c0.2,0,0.3,0,0.5,0c0.2,0,0.3-0.1,0.5-0.1c0.1-0.1,0.3-0.1,0.4-0.2
			c0.1-0.1,0.2-0.2,0.2-0.4c0-0.1,0-0.2-0.1-0.3c-0.1-0.1-0.2-0.1-0.3-0.2c-0.2-0.1-0.3-0.1-0.5-0.1c-0.2,0-0.4-0.1-0.6-0.1
			c-0.3,0-0.5-0.1-0.8-0.1c-0.3,0-0.5-0.1-0.7-0.2c-0.2-0.1-0.4-0.2-0.5-0.4c-0.1-0.2-0.2-0.5-0.2-0.7c0-0.3,0.1-0.6,0.3-0.8
			c0.2-0.2,0.4-0.4,0.6-0.5c0.3-0.1,0.5-0.2,0.8-0.2c0.3,0,0.5-0.1,0.8-0.1c0.8,0,1.7,0.2,2.4,0.6l-0.3,0.7c-0.3-0.2-0.7-0.3-1-0.4
			c-0.3-0.1-0.7-0.1-1-0.1c-0.2,0-0.4,0-0.7,0.1c-0.2,0-0.3,0.1-0.4,0.2c-0.1,0-0.2,0.1-0.2,0.2c0,0.1-0.1,0.1-0.1,0.2
			c0,0.1,0.1,0.2,0.2,0.3c0.1,0.1,0.3,0.1,0.4,0.2c0.2,0,0.3,0.1,0.5,0.1c0.2,0,0.3,0,0.4,0c0.2,0,0.3,0,0.5,0.1
			c0.2,0,0.4,0.1,0.6,0.1c0.2,0,0.4,0.1,0.5,0.2c0.2,0.1,0.3,0.2,0.4,0.3c0.1,0.1,0.2,0.3,0.3,0.4
			C1309.5,449.3,1309.6,449.5,1309.6,449.7z"/>
		<rect id="Rectangle_21" x="1097.8" y="439" class="st1" width="219.9" height="1"/>
		<rect id="Rectangle_22" x="1097.8" y="457.2" class="st1" width="219.9" height="1"/>
	</g>
</g>
</svg>
