<?xml version="1.0" encoding="utf-8"?>
<svg xmlns="http://www.w3.org/2000/svg" xmlns:xlink="http://www.w3.org/1999/xlink" x="0px" y="0px"
	 width="230px" height="47.207px" viewBox="0 0 230 47.207" enable-background="new 0 0 230 47.207" xml:space="preserve">
<g transform="translate(-140.001 -47.385)">
	<path fill="#092D58" d="M163.338,68.658l-1.061-8.597c-1.061,1.378-2.149,2.757-3.264,4.137
		c-1.115,1.38-2.195,2.768-3.24,4.165h-2.866l-5.465-7.948c-0.176,1.378-0.335,2.751-0.477,4.121
		c-0.143,1.37-0.311,2.743-0.505,4.121h-6.657l1.805-20.713l5.915-0.028l7.508,11.494c1.503-1.968,2.936-3.884,4.297-5.747
		c1.361-1.863,2.785-3.779,4.272-5.747l4.536,0.028l1.857,20.713L163.338,68.658L163.338,68.658z"/>
	<path fill="#092D58" d="M171.635,68.657l0.025-20.713h18.742v5.142h-11.959v1.196c0,0.285,0,0.518-0.012,0.694
		c-0.012,0.176-0.012,0.327-0.012,0.442v0.442h10.201v5.021h-10.177v2.599h12.285v5.17h-19.094V68.657z"/>
	<path fill="#092D58" d="M206.951,68.657l-6.648-7.329h-0.825v7.329h-6.525l-0.025-20.713h11.88
		c2.517,0,4.42,0.591,5.708,1.774c1.305,1.217,2.013,2.944,1.937,4.727c0.005,0.719-0.131,1.431-0.402,2.097
		c-0.268,0.65-0.638,1.254-1.096,1.788c-0.474,0.553-1.028,1.031-1.644,1.419c-0.644,0.411-1.34,0.735-2.069,0.963
		c0.455,0.512,0.971,1.074,1.547,1.686c0.574,0.612,1.164,1.23,1.764,1.861s1.184,1.252,1.752,1.861
		c0.568,0.609,1.08,1.162,1.535,1.654l-0.267,0.885L206.951,68.657z M205.782,54.476c-0.007-0.422-0.177-0.824-0.474-1.124
		c-0.186-0.187-0.41-0.333-0.656-0.427c-0.315-0.116-0.65-0.171-0.986-0.163h-4.187v3.37h4.018c0.623,0.03,1.234-0.17,1.719-0.562
		c0.333-0.27,0.538-0.667,0.563-1.095L205.782,54.476z"/>
	<path fill="#092D58" d="M234.05,55.481c-0.315-0.308-0.675-0.568-1.067-0.769c-0.413-0.217-0.825-0.408-1.238-0.578
		c-0.413-0.17-0.794-0.311-1.142-0.427s-0.619-0.217-0.819-0.295c-0.598-0.186-1.207-0.334-1.824-0.442
		c-0.765-0.14-1.542-0.21-2.32-0.206c-0.745-0.008-1.484,0.122-2.182,0.383c-0.637,0.24-1.219,0.608-1.71,1.08
		c-0.485,0.473-0.866,1.041-1.118,1.67c-0.272,0.697-0.407,1.44-0.395,2.188c-0.011,0.788,0.132,1.571,0.421,2.304
		c0.261,0.658,0.653,1.256,1.152,1.758c0.491,0.485,1.078,0.863,1.723,1.108c0.673,0.258,1.388,0.388,2.109,0.383
		c0.862,0,1.719-0.124,2.545-0.371c0.786-0.225,1.54-0.548,2.244-0.963c0-0.097,0-0.241,0.012-0.43s0.012-0.427,0.012-0.725h-5.606
		v-4.492h11.733v8.45c-0.559,0.485-1.151,0.93-1.773,1.331c-1.651,1.048-3.467,1.812-5.371,2.26
		c-1.246,0.277-2.519,0.411-3.795,0.399c-1.536,0.008-3.063-0.227-4.526-0.694c-1.378-0.432-2.655-1.136-3.757-2.069
		c-1.091-0.936-1.964-2.101-2.555-3.412c-0.654-1.488-0.976-3.102-0.942-4.727c-0.011-1.127,0.156-2.249,0.496-3.324
		c0.308-0.97,0.764-1.887,1.353-2.718c0.565-0.792,1.242-1.498,2.009-2.097c0.759-0.595,1.588-1.095,2.467-1.491
		c0.874-0.393,1.789-0.69,2.728-0.885c0.913-0.194,1.844-0.293,2.778-0.295c0.248,0,0.572,0.01,0.967,0.028
		c0.395,0.019,0.835,0.05,1.315,0.088c0.48,0.038,0.979,0.11,1.501,0.206c0.521,0.096,1.039,0.217,1.551,0.355
		c0.564,0.198,1.115,0.43,1.651,0.694c0.587,0.286,1.153,0.591,1.698,0.917c0.545,0.326,1.033,0.647,1.463,0.963
		c0.352,0.248,0.684,0.524,0.992,0.825L234.05,55.481z"/>
	<path fill="#092D58" d="M239.092,68.657l0.025-20.713h18.744v5.142h-11.959v1.196c0,0.285,0,0.518-0.012,0.694
		s-0.012,0.327-0.012,0.442v0.442h10.195v5.021h-10.173v2.599h12.285v5.17h-19.093V68.657z"/>
	<path fill="#092D58" d="M274.403,68.657l-6.648-7.329h-0.825v7.329h-6.525l-0.025-20.713h11.88
		c2.517,0,4.42,0.591,5.708,1.774c1.305,1.217,2.013,2.944,1.937,4.727c0.005,0.719-0.131,1.431-0.402,2.097
		c-0.268,0.65-0.638,1.254-1.096,1.788c-0.474,0.553-1.028,1.031-1.644,1.419c-0.644,0.411-1.34,0.735-2.069,0.963
		c0.455,0.512,0.971,1.074,1.547,1.686c0.574,0.612,1.164,1.23,1.764,1.861c0.6,0.631,1.183,1.252,1.752,1.861
		s1.08,1.162,1.535,1.654l-0.267,0.885L274.403,68.657z M273.234,54.476c-0.007-0.422-0.177-0.824-0.474-1.124
		c-0.186-0.187-0.41-0.333-0.656-0.427c-0.315-0.116-0.65-0.171-0.986-0.163h-4.187v3.37h4.018c0.623,0.03,1.234-0.17,1.719-0.562
		c0.334-0.269,0.54-0.666,0.567-1.095L273.234,54.476z"/>
	<path fill="#092D58" d="M300.044,62.042c0.052,1.23-0.234,2.451-0.825,3.531c-0.528,0.891-1.269,1.637-2.156,2.172
		c-0.911,0.541-1.911,0.916-2.953,1.108c-1.061,0.205-2.14,0.309-3.221,0.311c-0.77,0.003-1.54-0.056-2.301-0.179
		c-0.737-0.123-1.462-0.305-2.169-0.546c-0.77-0.266-1.517-0.592-2.235-0.976c-0.766-0.405-1.599-0.892-2.501-1.463l1.926-5.082
		c1.198,0.861,2.503,1.562,3.883,2.084c0.988,0.372,2.03,0.577,3.085,0.606c0.44,0.001,0.879-0.029,1.315-0.088
		c0.399-0.051,0.792-0.14,1.174-0.267c0.31-0.098,0.597-0.259,0.841-0.474c0.205-0.178,0.322-0.437,0.32-0.709
		c0-0.235-0.16-0.433-0.477-0.59c-0.369-0.174-0.76-0.298-1.162-0.371c-0.458-0.088-0.945-0.157-1.459-0.206l-1.371-0.132
		c-0.923-0.065-1.84-0.198-2.743-0.399c-0.914-0.194-1.789-0.539-2.589-1.02c-0.784-0.474-1.444-1.127-1.926-1.905
		c-0.539-0.937-0.802-2.008-0.757-3.089c-0.017-0.853,0.134-1.7,0.443-2.495c0.273-0.683,0.671-1.309,1.174-1.846
		c0.482-0.51,1.046-0.934,1.67-1.256c0.624-0.324,1.281-0.582,1.959-0.769c0.657-0.184,1.326-0.317,2.003-0.399
		c0.606-0.076,1.216-0.115,1.827-0.119c1.486,0.003,2.96,0.259,4.36,0.757c1.612,0.592,3.149,1.371,4.58,2.32l-1.638,4.52
		c-0.639-0.394-1.309-0.735-2.003-1.02c-0.623-0.256-1.263-0.467-1.915-0.634c-0.585-0.151-1.18-0.26-1.78-0.327
		c-0.533-0.057-1.068-0.087-1.604-0.088c-0.556-0.009-1.111,0.031-1.66,0.119c-0.344,0.052-0.678,0.152-0.995,0.295
		c-0.192,0.084-0.36,0.216-0.487,0.383c-0.079,0.113-0.125,0.245-0.132,0.383c0,0.198,0.147,0.355,0.443,0.474
		c0.335,0.131,0.684,0.224,1.039,0.279c0.403,0.07,0.81,0.114,1.218,0.132c0.413,0.019,0.744,0.028,0.995,0.028
		c0.574,0.06,1.19,0.132,1.849,0.223c0.665,0.089,1.323,0.227,1.968,0.413c0.649,0.185,1.279,0.432,1.88,0.738
		c0.598,0.307,1.138,0.717,1.594,1.212c0.481,0.53,0.856,1.146,1.105,1.817C299.925,60.314,300.064,61.176,300.044,62.042z"/>
	<path fill="#169CFF" d="M323.986,62.483c0.036,1.772-0.766,3.457-2.163,4.548c-0.715,0.553-1.529,0.964-2.398,1.212
		c-0.98,0.283-1.996,0.422-3.016,0.413h-13.136V47.944h12.769c1.146-0.022,2.288,0.138,3.384,0.474
		c0.878,0.27,1.693,0.711,2.398,1.299c0.625,0.533,1.114,1.206,1.428,1.965c0.317,0.774,0.477,1.603,0.471,2.439
		c0.02,0.811-0.18,1.613-0.578,2.32c-0.378,0.653-0.887,1.221-1.494,1.67c0.675,0.543,1.239,1.21,1.664,1.965
		C323.749,60.804,323.981,61.635,323.986,62.483z M317.51,54.535c0-0.189-0.023-0.378-0.069-0.562
		c-0.045-0.178-0.135-0.341-0.261-0.474c-0.16-0.155-0.353-0.271-0.565-0.339c-0.314-0.098-0.641-0.143-0.97-0.132h-5.769v2.985
		h5.481c0.608,0.072,1.221-0.098,1.704-0.474c0.275-0.263,0.435-0.624,0.446-1.004H317.51z M317.406,62.216
		c-0.001-0.195-0.024-0.388-0.069-0.578c-0.044-0.187-0.134-0.36-0.263-0.502c-0.156-0.164-0.35-0.286-0.565-0.355
		c-0.305-0.097-0.625-0.142-0.945-0.132h-5.69v2.954h5.427c0.349,0.008,0.698-0.032,1.036-0.119
		c0.236-0.061,0.456-0.172,0.644-0.327c0.143-0.119,0.255-0.27,0.327-0.442c0.066-0.158,0.1-0.328,0.098-0.499H317.406z"/>
	<path fill="#169CFF" d="M342.593,68.658l-1.233-2.571h-9.708l-1.422,2.571h-7.003l11.027-20.77h6.008l10.543,20.77
		H342.593z M336.532,56.072l-2.172,4.432h4.373L336.532,56.072z"/>
	<path fill="#169CFF" d="M360.861,60.797v7.86h-8.067V60.65c-0.709-0.926-1.457-1.887-2.244-2.882
		c-0.787-0.995-1.575-1.999-2.364-3.013c-0.788-1.014-1.576-2.018-2.364-3.013c-0.788-0.995-1.536-1.956-2.244-2.883l0.267-0.917
		h7.831l5.819,6.855c0.474-0.609,0.926-1.202,1.359-1.774c0.433-0.572,0.867-1.127,1.3-1.67c0.433-0.543,0.86-1.092,1.284-1.654
		c0.424-0.562,0.873-1.149,1.343-1.758h7.122l0.295,0.797L360.861,60.797z"/>
	<path fill="#092D58" d="M157.997,84.336c0.005,0.257-0.054,0.512-0.173,0.741c-0.114,0.217-0.276,0.405-0.474,0.55
		c-0.212,0.156-0.45,0.272-0.703,0.344c-0.279,0.081-0.569,0.121-0.86,0.119h-1.566v1.529h-1.18v-5.097h2.709
		c0.293-0.001,0.585,0.039,0.867,0.119c0.257,0.072,0.499,0.191,0.713,0.351c0.201,0.152,0.365,0.348,0.481,0.572
		C157.935,83.802,157.999,84.068,157.997,84.336z M156.823,84.349c0-0.112-0.023-0.224-0.069-0.327
		c-0.049-0.108-0.119-0.205-0.206-0.285c-0.096-0.088-0.208-0.158-0.329-0.206c-0.142-0.051-0.292-0.075-0.443-0.069h-1.544v1.767
		h1.397c0.157,0,0.314-0.023,0.464-0.069c0.137-0.039,0.267-0.102,0.383-0.185c0.105-0.074,0.193-0.171,0.257-0.283
		C156.793,84.588,156.824,84.469,156.823,84.349L156.823,84.349z"/>
	<path fill="#092D58" d="M163.694,87.625c-0.223-0.283-0.439-0.55-0.646-0.807c-0.088-0.107-0.179-0.22-0.275-0.336
		c-0.096-0.116-0.188-0.229-0.279-0.336c-0.091-0.107-0.179-0.206-0.257-0.301s-0.151-0.176-0.206-0.245h-0.988l-0.016,2.025h-1.164
		v-5.101h2.991c0.284-0.002,0.567,0.035,0.841,0.11c0.235,0.064,0.458,0.167,0.659,0.305c0.177,0.124,0.324,0.286,0.43,0.474
		c0.102,0.186,0.155,0.394,0.154,0.606c0.001,0.199-0.046,0.395-0.138,0.572c-0.092,0.178-0.215,0.338-0.364,0.471
		c-0.161,0.14-0.343,0.253-0.54,0.336c-0.208,0.089-0.428,0.145-0.653,0.166l0.088,0.028l1.535,1.949v0.088h-1.174L163.694,87.625z
		 M163.848,84.035c0.002-0.183-0.082-0.355-0.226-0.468c-0.214-0.145-0.471-0.213-0.728-0.191h-1.857v1.347l1.767,0.016
		c0.272,0.017,0.542-0.056,0.769-0.206C163.741,84.421,163.843,84.235,163.848,84.035z"/>
	<path fill="#092D58" d="M167.304,87.625v-5.1h1.142v5.1H167.304z"/>
	<path fill="#092D58" d="M170.092,82.525h1.221l2.015,3.851l1.971-3.851h1.18l-2.655,5.116h-0.976L170.092,82.525z"/>
	<path fill="#092D58" d="M181.358,87.626l-0.53-1.142l-2.527,0.006l-0.54,1.136h-1.12l2.511-5.116h0.963l2.401,5.116
		L181.358,87.626z M179.584,83.762h-0.006l-0.904,1.905h1.788L179.584,83.762z"/>
	<path fill="#092D58" d="M186.439,83.363v4.264h-1.169l-0.016-4.264h-2.206v-0.838h5.602v0.838H186.439z"/>
	<path fill="#092D58" d="M190.38,87.625v-5.1h4.504v0.838h-3.327v1.331h2.854v0.807h-2.854v1.281h3.422v0.845
		L190.38,87.625z"/>
	<path fill="#092D58" d="M200.237,87.625v-5.1h4.504v0.838h-3.327v1.331h2.854v0.807h-2.854v1.281h3.422v0.845
		L200.237,87.625z"/>
	<path fill="#092D58" d="M212.841,85.115c0.005,0.331-0.059,0.659-0.188,0.963c-0.121,0.276-0.293,0.527-0.505,0.741
		c-0.214,0.213-0.461,0.39-0.731,0.524c-0.275,0.138-0.566,0.239-0.867,0.301c0.107,0.126,0.232,0.236,0.371,0.327
		c0.158,0.105,0.321,0.202,0.49,0.289c0.176,0.091,0.361,0.169,0.55,0.245s0.371,0.138,0.546,0.188l-0.546,0.713
		c-0.3-0.091-0.593-0.204-0.875-0.339c-0.273-0.129-0.539-0.272-0.797-0.43c-0.234-0.144-0.461-0.302-0.678-0.471
		c-0.186-0.143-0.359-0.301-0.518-0.474c-0.331-0.048-0.654-0.138-0.963-0.267c-0.303-0.124-0.582-0.299-0.825-0.518
		c-0.241-0.216-0.437-0.479-0.574-0.772c-0.149-0.323-0.222-0.676-0.213-1.032c-0.007-0.392,0.088-0.779,0.275-1.124
		c0.182-0.328,0.428-0.615,0.725-0.845c0.305-0.233,0.648-0.413,1.014-0.53c0.369-0.121,0.754-0.184,1.142-0.185
		c0.397,0,0.792,0.062,1.169,0.185c0.366,0.116,0.71,0.296,1.014,0.53c0.294,0.228,0.537,0.516,0.713,0.845
		C212.753,84.329,212.847,84.719,212.841,85.115z M211.771,85.115c0.002-0.245-0.051-0.487-0.154-0.709
		c-0.1-0.219-0.246-0.413-0.427-0.572c-0.195-0.167-0.42-0.296-0.662-0.38c-0.275-0.094-0.563-0.14-0.853-0.138
		c-0.289-0.003-0.577,0.043-0.851,0.138c-0.242,0.083-0.466,0.212-0.659,0.38c-0.18,0.158-0.326,0.351-0.427,0.568
		c-0.103,0.223-0.155,0.467-0.154,0.713c-0.002,0.238,0.051,0.473,0.154,0.688c0.101,0.212,0.247,0.4,0.427,0.55
		c0.196,0.161,0.419,0.286,0.659,0.367c0.274,0.094,0.561,0.141,0.851,0.138c0.29,0.003,0.578-0.041,0.853-0.132
		c0.242-0.077,0.467-0.201,0.662-0.364c0.179-0.151,0.325-0.339,0.427-0.55C211.722,85.595,211.775,85.356,211.771,85.115z"/>
	<path fill="#092D58" d="M214.559,82.525h1.142v2.577c-0.008,0.272,0.031,0.542,0.116,0.801
		c0.066,0.194,0.177,0.37,0.323,0.514c0.14,0.13,0.311,0.223,0.496,0.27c0.206,0.052,0.418,0.077,0.631,0.075
		c0.204,0.002,0.407-0.031,0.6-0.097c0.182-0.063,0.346-0.168,0.481-0.305c0.143-0.151,0.252-0.331,0.32-0.528
		c0.083-0.245,0.122-0.504,0.116-0.763l-0.006-2.539h1.158v2.489c0.005,0.383-0.057,0.763-0.185,1.124
		c-0.113,0.317-0.293,0.606-0.527,0.847c-0.237,0.238-0.525,0.421-0.841,0.534c-0.358,0.129-0.737,0.192-1.118,0.185
		c-0.388,0.005-0.773-0.058-1.14-0.185c-0.321-0.113-0.614-0.293-0.86-0.528c-0.238-0.233-0.422-0.514-0.54-0.825
		c-0.126-0.346-0.187-0.712-0.179-1.08L214.559,82.525z"/>
	<path fill="#092D58" d="M222.083,87.625v-5.1h1.142v5.1H222.083z"/>
	<path fill="#092D58" d="M228.59,83.363v4.264h-1.169l-0.016-4.264h-2.206v-0.838h5.602v0.838H228.59z"/>
	<path fill="#092D58" d="M235.356,85.698v1.926h-1.18l-0.006-1.971l-2.087-3.129h1.221l1.557,2.323l1.479-2.323h1.126
		L235.356,85.698z"/>
	<path fill="#169CFF" d="M241.973,85.902v-0.825h2.621v0.825H241.973z"/>
	<path fill="#092D58" d="M256.345,87.626h-1.042l-0.344-3.007l-0.016-0.016l-1.965,2.932h-0.349l-1.857-2.91
		l-0.016,0.022l-0.327,2.975h-1.042l0.452-5.1h0.678l2.329,3.5h0.016l2.351-3.5h0.634L256.345,87.626z"/>
	<path fill="#092D58" d="M263.893,87.625h-1.076l-0.662-0.662c-0.102,0.096-0.21,0.187-0.323,0.27
		c-0.121,0.089-0.249,0.167-0.383,0.235c-0.139,0.071-0.285,0.127-0.436,0.166c-0.162,0.042-0.329,0.063-0.496,0.063
		c-0.242-0.001-0.484-0.016-0.725-0.047c-0.245-0.028-0.483-0.099-0.703-0.21c-0.216-0.111-0.399-0.277-0.53-0.481
		c-0.152-0.258-0.225-0.555-0.21-0.854c-0.003-0.186,0.043-0.37,0.132-0.534c0.088-0.158,0.203-0.299,0.339-0.417
		c0.142-0.123,0.298-0.228,0.465-0.314c0.173-0.088,0.344-0.163,0.505-0.232l-0.182-0.182l-0.275-0.336
		c-0.137-0.158-0.215-0.359-0.219-0.568c0.001-0.148,0.043-0.293,0.122-0.417c0.09-0.141,0.208-0.261,0.349-0.351
		c0.169-0.109,0.353-0.191,0.546-0.245c0.232-0.062,0.472-0.093,0.712-0.091c0.24-0.006,0.479,0.027,0.709,0.097
		c0.178,0.055,0.343,0.145,0.486,0.263c0.122,0.099,0.217,0.226,0.279,0.371c0.058,0.132,0.088,0.274,0.088,0.417
		c0.001,0.146-0.033,0.291-0.1,0.421c-0.07,0.128-0.16,0.244-0.267,0.344c-0.116,0.108-0.241,0.205-0.373,0.292
		c-0.139,0.09-0.282,0.171-0.43,0.245l0.889,0.894c0.107-0.138,0.206-0.267,0.298-0.395c0.092-0.129,0.173-0.241,0.241-0.339
		c0.078-0.116,0.147-0.226,0.21-0.327l0.678,0.392c-0.091,0.144-0.188,0.292-0.283,0.436c-0.082,0.126-0.173,0.263-0.275,0.408
		c-0.103,0.144-0.198,0.283-0.295,0.408l1.202,1.193L263.893,87.625z M260.406,85.224c-0.126,0.054-0.251,0.11-0.371,0.169
		c-0.114,0.056-0.222,0.123-0.323,0.201c-0.089,0.068-0.166,0.149-0.229,0.241c-0.06,0.088-0.09,0.192-0.088,0.298
		c-0.007,0.151,0.031,0.301,0.11,0.43c0.07,0.104,0.165,0.189,0.275,0.248c0.118,0.061,0.247,0.101,0.38,0.116
		c0.135,0.018,0.271,0.028,0.408,0.028c0.176-0.006,0.346-0.062,0.49-0.163c0.184-0.119,0.356-0.255,0.515-0.405L260.406,85.224z
		 M261.455,83.557c-0.001-0.058-0.01-0.115-0.028-0.169c-0.02-0.061-0.052-0.118-0.094-0.166c-0.05-0.056-0.113-0.1-0.182-0.129
		c-0.093-0.037-0.192-0.054-0.292-0.05c-0.175-0.009-0.348,0.043-0.49,0.147c-0.115,0.085-0.184,0.218-0.185,0.361
		c0.003,0.13,0.054,0.255,0.144,0.349l0.364,0.408h0.006c0.087-0.04,0.171-0.087,0.251-0.141c0.089-0.059,0.172-0.126,0.248-0.201
		c0.07-0.065,0.133-0.139,0.185-0.219C261.424,83.691,261.449,83.626,261.455,83.557L261.455,83.557z"/>
	<path fill="#092D58" d="M270.159,87.626l-0.53-1.142l-2.527,0.006l-0.54,1.136h-1.12l2.511-5.116h0.963l2.401,5.116
		L270.159,87.626z M268.382,83.762h-0.006l-0.904,1.905h1.788L268.382,83.762z"/>
	<path fill="#169CFF" d="M275.879,85.902v-0.825h2.621v0.825H275.879z"/>
	<path fill="#092D58" d="M283.621,87.625v-5.1h1.142v5.1H283.621z"/>
	<path fill="#092D58" d="M291.811,87.625l-3.637-3.217v3.217h-1.158v-5.1h0.684l3.487,3.063v-3.063h1.142v5.1H291.811
		z"/>
	<path fill="#092D58" d="M293.958,82.525h1.221l2.015,3.851l1.971-3.851h1.18l-2.655,5.116h-0.976L293.958,82.525z"/>
	<path fill="#092D58" d="M301.788,87.625v-5.1h4.504v0.838h-3.327v1.331h2.853v0.807h-2.853v1.281h3.422v0.845
		L301.788,87.625z"/>
	<path fill="#092D58" d="M313.294,86.069c0.012,0.289-0.081,0.574-0.261,0.801c-0.18,0.212-0.404,0.382-0.656,0.499
		c-0.269,0.125-0.554,0.212-0.847,0.257c-0.278,0.044-0.559,0.067-0.841,0.069c-0.215,0.002-0.43-0.012-0.644-0.041
		c-0.195-0.026-0.388-0.067-0.578-0.122c-0.195-0.058-0.386-0.129-0.572-0.213c-0.191-0.088-0.395-0.191-0.616-0.311l0.364-0.813
		c0.357,0.176,0.722,0.334,1.096,0.471c0.271,0.102,0.558,0.158,0.847,0.163c0.17,0,0.34-0.014,0.508-0.041
		c0.171-0.025,0.34-0.068,0.502-0.129c0.143-0.051,0.274-0.13,0.386-0.232c0.099-0.092,0.155-0.222,0.154-0.358
		c0.004-0.11-0.044-0.215-0.129-0.285c-0.103-0.083-0.222-0.145-0.349-0.182c-0.168-0.055-0.342-0.093-0.518-0.113
		c-0.198-0.028-0.408-0.053-0.631-0.075c-0.267-0.028-0.537-0.069-0.809-0.11c-0.257-0.038-0.507-0.112-0.744-0.219
		c-0.212-0.095-0.399-0.239-0.543-0.421c-0.15-0.206-0.224-0.458-0.21-0.713c-0.013-0.285,0.079-0.565,0.257-0.788
		c0.175-0.207,0.395-0.37,0.644-0.477c0.263-0.116,0.541-0.196,0.825-0.239c0.265-0.043,0.532-0.066,0.801-0.069
		c0.842-0.003,1.669,0.221,2.395,0.646l-0.336,0.741c-0.326-0.169-0.67-0.299-1.026-0.389c-0.337-0.088-0.683-0.135-1.032-0.138
		c-0.221-0.004-0.442,0.016-0.659,0.06c-0.15,0.029-0.295,0.081-0.43,0.154c-0.094,0.049-0.174,0.122-0.232,0.21
		c-0.044,0.07-0.068,0.15-0.069,0.232c-0.003,0.127,0.068,0.245,0.182,0.301c0.134,0.075,0.279,0.13,0.43,0.16
		c0.164,0.035,0.331,0.058,0.499,0.069c0.166,0.012,0.298,0.022,0.389,0.032c0.169,0.016,0.349,0.032,0.54,0.054
		c0.187,0.021,0.373,0.053,0.556,0.097c0.179,0.042,0.354,0.101,0.521,0.176c0.158,0.069,0.304,0.161,0.433,0.275
		c0.126,0.116,0.226,0.256,0.295,0.413C313.264,85.662,313.3,85.865,313.294,86.069z"/>
	<path fill="#092D58" d="M318.132,83.363v4.264h-1.169l-0.016-4.264h-2.206v-0.838h5.602v0.838H318.132z"/>
	<path fill="#092D58" d="M328.918,87.626h-1.042l-0.344-3.007l-0.016-0.016l-1.965,2.932h-0.349l-1.857-2.91
		l-0.016,0.022l-0.327,2.975h-1.042l0.452-5.1h0.678l2.329,3.5h0.016l2.351-3.5h0.634L328.918,87.626z"/>
	<path fill="#092D58" d="M331.064,87.625v-5.1h4.504v0.838h-3.327v1.331h2.853v0.807h-2.853v1.281h3.422v0.845
		L331.064,87.625z"/>
	<path fill="#092D58" d="M342.405,87.625l-3.638-3.217v3.217h-1.158v-5.1h0.684l3.487,3.063v-3.063h1.142v5.1H342.405
		z"/>
	<path fill="#092D58" d="M348.047,83.363v4.264h-1.169l-0.016-4.264h-2.206v-0.838h5.602v0.838H348.047z"/>
	<path fill="#092D58" d="M356.954,86.069c0.012,0.289-0.081,0.574-0.261,0.801c-0.18,0.212-0.404,0.382-0.656,0.499
		c-0.269,0.125-0.554,0.212-0.847,0.257c-0.278,0.044-0.559,0.067-0.841,0.069c-0.215,0.002-0.43-0.012-0.644-0.041
		c-0.195-0.026-0.388-0.067-0.578-0.122c-0.195-0.058-0.386-0.129-0.572-0.213c-0.191-0.088-0.395-0.191-0.615-0.311l0.364-0.813
		c0.357,0.176,0.722,0.334,1.096,0.471c0.271,0.102,0.558,0.158,0.847,0.163c0.17,0,0.34-0.014,0.508-0.041
		c0.171-0.025,0.34-0.068,0.502-0.129c0.143-0.051,0.274-0.13,0.387-0.232c0.099-0.092,0.155-0.222,0.154-0.358
		c0.004-0.11-0.044-0.215-0.129-0.285c-0.103-0.083-0.222-0.145-0.349-0.182c-0.168-0.055-0.342-0.093-0.518-0.113
		c-0.198-0.028-0.408-0.053-0.631-0.075c-0.267-0.028-0.536-0.069-0.809-0.11c-0.257-0.038-0.507-0.112-0.744-0.219
		c-0.212-0.095-0.399-0.239-0.543-0.421c-0.15-0.206-0.224-0.458-0.21-0.713c-0.013-0.285,0.079-0.565,0.257-0.788
		c0.175-0.207,0.395-0.37,0.644-0.477c0.263-0.116,0.541-0.196,0.825-0.239c0.265-0.043,0.532-0.066,0.801-0.069
		c0.842-0.003,1.669,0.221,2.395,0.646l-0.336,0.741c-0.326-0.169-0.67-0.299-1.026-0.389c-0.337-0.088-0.683-0.135-1.032-0.138
		c-0.221-0.004-0.442,0.016-0.659,0.06c-0.15,0.029-0.295,0.081-0.43,0.154c-0.094,0.049-0.174,0.122-0.232,0.21
		c-0.044,0.07-0.068,0.15-0.069,0.232c-0.003,0.127,0.068,0.245,0.182,0.301c0.134,0.075,0.279,0.13,0.43,0.16
		c0.164,0.035,0.331,0.058,0.499,0.069c0.166,0.012,0.298,0.022,0.389,0.032c0.169,0.016,0.349,0.032,0.54,0.054
		c0.187,0.021,0.373,0.053,0.556,0.097c0.179,0.042,0.354,0.101,0.521,0.176c0.158,0.069,0.304,0.161,0.433,0.275
		c0.126,0.116,0.226,0.256,0.295,0.413C356.923,85.662,356.959,85.865,356.954,86.069z"/>
	<rect x="144.846" y="75.294" fill="#169CFF" width="220.309" height="1.017"/>
	<rect x="144.846" y="93.573" fill="#169CFF" width="220.309" height="1.017"/>
</g>
</svg>
